<mxfile host="www.draw.io" modified="2019-11-14T07:50:24.482Z" agent="Mozilla/5.0 (Windows NT 10.0; Win64; x64) AppleWebKit/537.36 (KHTML, like Gecko) Chrome/72.0.3626.119 Safari/537.36" etag="1SE1tXJfvi9L5sHfXEhj" version="12.2.6" type="github" pages="1">
  <diagram id="bGpI3JKIUPhiKCbYNTpG" name="Page-1">
    <mxGraphModel dx="1422" dy="762" grid="1" gridSize="10" guides="1" tooltips="1" connect="1" arrows="1" fold="1" page="1" pageScale="1" pageWidth="1169" pageHeight="1654" math="0" shadow="0">
      <root>
        <mxCell id="0"/>
        <mxCell id="1" parent="0"/>
        <mxCell id="z22MFKtNenLAoitEVp-j-13" style="edgeStyle=orthogonalEdgeStyle;curved=1;rounded=0;orthogonalLoop=1;jettySize=auto;html=1;entryX=0;entryY=0.5;entryDx=0;entryDy=0;" edge="1" parent="1" source="z22MFKtNenLAoitEVp-j-1" target="z22MFKtNenLAoitEVp-j-3">
          <mxGeometry relative="1" as="geometry"/>
        </mxCell>
        <mxCell id="z22MFKtNenLAoitEVp-j-14" style="edgeStyle=orthogonalEdgeStyle;curved=1;rounded=0;orthogonalLoop=1;jettySize=auto;html=1;" edge="1" parent="1" source="z22MFKtNenLAoitEVp-j-1" target="z22MFKtNenLAoitEVp-j-6">
          <mxGeometry relative="1" as="geometry"/>
        </mxCell>
        <mxCell id="z22MFKtNenLAoitEVp-j-15" style="edgeStyle=orthogonalEdgeStyle;curved=1;rounded=0;orthogonalLoop=1;jettySize=auto;html=1;entryX=0;entryY=0.5;entryDx=0;entryDy=0;" edge="1" parent="1" source="z22MFKtNenLAoitEVp-j-1" target="z22MFKtNenLAoitEVp-j-8">
          <mxGeometry relative="1" as="geometry"/>
        </mxCell>
        <mxCell id="z22MFKtNenLAoitEVp-j-16" style="edgeStyle=orthogonalEdgeStyle;curved=1;rounded=0;orthogonalLoop=1;jettySize=auto;html=1;entryX=0;entryY=0.5;entryDx=0;entryDy=0;" edge="1" parent="1" source="z22MFKtNenLAoitEVp-j-1" target="z22MFKtNenLAoitEVp-j-11">
          <mxGeometry relative="1" as="geometry"/>
        </mxCell>
        <mxCell id="z22MFKtNenLAoitEVp-j-1" value="groupFund" style="rounded=1;whiteSpace=wrap;html=1;" vertex="1" parent="1">
          <mxGeometry x="90" y="547" width="120" height="70" as="geometry"/>
        </mxCell>
        <mxCell id="z22MFKtNenLAoitEVp-j-3" value="ets_fund" style="rounded=1;whiteSpace=wrap;html=1;" vertex="1" parent="1">
          <mxGeometry x="360" y="367" width="120" height="70" as="geometry"/>
        </mxCell>
        <mxCell id="z22MFKtNenLAoitEVp-j-6" value="cloud_fund" style="rounded=1;whiteSpace=wrap;html=1;" vertex="1" parent="1">
          <mxGeometry x="360" y="487" width="120" height="70" as="geometry"/>
        </mxCell>
        <mxCell id="z22MFKtNenLAoitEVp-j-8" value="kingdom_fund" style="rounded=1;whiteSpace=wrap;html=1;" vertex="1" parent="1">
          <mxGeometry x="360" y="627" width="120" height="70" as="geometry"/>
        </mxCell>
        <mxCell id="z22MFKtNenLAoitEVp-j-11" value="fundinfo" style="rounded=1;whiteSpace=wrap;html=1;" vertex="1" parent="1">
          <mxGeometry x="360" y="757" width="120" height="70" as="geometry"/>
        </mxCell>
      </root>
    </mxGraphModel>
  </diagram>
</mxfile>
